<?xml version="1.0" encoding="iso-8859-1"?>
<!-- Generator: Adobe Illustrator 19.0.0, SVG Export Plug-In . SVG Version: 6.00 Build 0)  -->
<svg version="1.1" id="Capa_1" xmlns="http://www.w3.org/2000/svg" xmlns:xlink="http://www.w3.org/1999/xlink" x="0px" y="0px"
	 viewBox="0 0 511.999 511.999" style="enable-background:new 0 0 511.999 511.999;" xml:space="preserve">
<path style="fill:#D67C05;" d="M197.285,33.128c0,0-21.807-14.707-36.514,0S134.399,52.4,123.242,52.4
	c0,0,45.145,29.239,65.766,8.619"/>
<circle style="fill:#F9DCA2;" cx="239.949" cy="61.019" r="50.948"/>
<path style="fill:#E5C691;" d="M218.421,61.019c0-23.022,15.274-42.469,36.239-48.781c-4.658-1.403-9.592-2.164-14.707-2.164
	c-28.136,0-50.946,22.809-50.946,50.947c0,28.136,22.809,50.946,50.946,50.946c5.115,0,10.05-0.762,14.707-2.164
	C233.695,103.488,218.421,84.041,218.421,61.019z"/>
<path style="fill:#EFBC4B;" d="M112.21,255.098c-26.919-26.716-60.208-1.116-58.372,34.009
	c2.475,47.347-46.231,40.024-46.231,40.024s17.334-21.706,11.877-64.174c-5.447-42.468,22.172-90.211,65.564-73.069
	c26.27,10.376,38.644,28.978,44.324,42.042"/>
<g>
	<polyline style="fill:#EAEAE4;" points="365.515,370.119 403.977,417.739 304.577,427.882 266.034,409.625 292.405,383.254 
		318.777,403.539 349.206,403.539 296.503,350.837 	"/>
	<path style="fill:#EAEAE4;" d="M504.392,217.924l-15.508,15.508l-2.272,2.272c-7.546,7.546-19.779,7.546-27.325,0l-5.102-5.102
		l-18.359-4.372c-21.057-5.011-36.9-22.385-39.963-43.807c0,0-5.731,9.768-5.731,25.814c0,8.368,1.562,18.43,6.299,29.709
		c1.937,4.625,4.422,9.463,7.546,14.464c25.357,40.572-6.086,81.143-6.086,81.143l64.915,24.343c0,0,32.457,97.372-46.657,123.743
		l-3.043-39.557l28.4-9.129v-57.814c0,0-55.157,1.511-95.698-9.159c-0.01-0.01-0.01-0.01-0.02-0.01
		c-6.42-1.694-12.476-3.692-17.882-6.045c-19.434-8.469-39.608-11.309-59.316-10.934l-43.422,11.522l-19.444,5.153
		c-8.104,12.537-26.869,35.845-54.305,35.845c-8.226,0-17.243-1.562-26.29-4.006c-7.049-1.897-14.129-4.321-20.874-6.948
		c0.365,1.075,23.471,69.377-22.822,111.369L64.19,474.54c0,0,56.8-22.314,0-107.515l17.243-14.2c0,0,27.386,17.243,51.729-7.1
		c0,0-46.657-26.372-23.329-85.2c8.814-22.223,22.254-30.987,36.768-33.279l6.826-1.826l153.645-41.008
		c20.661-41.718,60.705-99.035,121.248-87.188c0,0,17.243-21.3,32.457-21.3l-4.057,34.486L504.392,217.924z"/>
</g>
<path style="fill:#CECECC;" d="M488.883,233.433l-2.272,2.272c-7.546,7.545-19.78,7.545-27.325,0l-5.102-5.101l-18.359-4.372
	c-21.057-5.011-36.9-22.385-39.963-43.807c0,0-5.731,9.768-5.731,25.814c0,8.368,1.562,18.43,6.299,29.709l0,0
	c-29.535-18.228-31.653-60.392-4.094-81.488l35.922-27.497c-11.756,12.029,17.811,84.683,59.255,103.813
	C487.981,232.987,488.437,233.21,488.883,233.433z"/>
<g>
	<polygon style="fill:#455256;" points="292.405,383.254 318.777,403.539 304.577,427.882 266.034,409.625 	"/>
	<path style="fill:#455256;" d="M454.124,455.136c-8.135,11.137-20.255,20.6-37.975,26.503l-3.043-39.557l28.4-9.129
		L454.124,455.136z"/>
</g>
<g>
	<path style="fill:#CECECC;" d="M345.786,365.97c-6.42-1.694-12.476-3.692-17.882-6.045c-19.434-8.469-39.608-11.309-59.316-10.934
		l-43.422,11.522l4.574-104.553l29.729,5.112C257.605,275.425,281.289,345.137,345.786,365.97z"/>
	<path style="fill:#CECECC;" d="M125.128,397.504c-7.049-1.897-14.129-4.321-20.874-6.948c0.365,1.075,23.471,69.377-22.822,111.369
		L64.189,474.54c0,0,56.8-22.314,0-107.515l17.243-14.2c0,0,27.386,17.243,51.729-7.1c0,0-46.657-26.372-23.329-85.2
		c8.814-22.223,22.254-30.987,36.768-33.279l6.826-1.826l2.769,14.869c0,0-36.372,54.853,5.589,96.814
		C161.785,337.103,169.595,376.762,125.128,397.504z"/>
</g>
<g>
	<path style="fill:#455256;" d="M82.801,457.885l19.88,13.997c-4.453,10.609-11.218,20.945-21.249,30.043L64.189,474.54
		C64.19,474.54,75.327,470.158,82.801,457.885z"/>
	<path style="fill:#455256;" d="M290.904,59.259L220.31,47.24l-27.792-4.727c7.404-18.987,25.875-32.437,47.479-32.437
		c5.071,0,9.97,0.74,14.596,2.13C275.081,18.312,290.154,36.965,290.904,59.259z"/>
</g>
<path style="fill:#2D373A;" d="M254.664,12.237c-16.614,5-29.658,18.257-34.354,35.003l-27.792-4.727
	c7.404-18.987,25.875-32.437,47.479-32.437c5.071,0,9.97,0.74,14.596,2.13C254.613,12.216,254.643,12.227,254.664,12.237z"/>
<path style="fill:#F7CF2B;" d="M295.072,180.964l-45.572,1.045l-20.58-49.984l-8.195-16.269
	c-8.682-17.212-33.259-17.152-41.87,0.101c-19.697,39.466-41.515,90.12-32.254,111.389c13.155,30.236,69.956,36.322,69.956,36.322
	l-12.81,102.098h66.564v-8.413c0-11.409-9.248-20.657-20.657-20.657l11.137-85.707c0.872-9.088-3.225-17.933-10.721-23.136
	l-5.852-4.067l0,0l51.901-1.217c11.461-0.284,20.519-9.818,20.225-21.27v-0.01C316.059,189.737,306.534,180.67,295.072,180.964z"/>
<path style="fill:#DBB826;" d="M162.453,227.246c-9.26-21.27,12.557-71.923,32.254-111.389c2.922-5.853,7.683-9.723,13.037-11.615
	c-10.459-3.696-23.18,0.178-28.888,11.615c-19.697,39.466-41.515,90.12-32.254,111.389c13.155,30.236,69.956,36.322,69.956,36.322
	l-12.81,102.098h15.851l10.812-90.455c1.054-8.813-5.078-16.9-13.859-18.191C198.718,254.399,171.118,247.161,162.453,227.246z"/>
<path style="fill:#455256;" d="M272.291,357.257v8.408h-66.568l9.473-75.514h42.468l-6.035,46.444
	C263.041,336.596,272.291,345.847,272.291,357.257z"/>
<polygon style="fill:#2D373A;" points="230.604,290.152 221.576,365.666 205.724,365.666 215.197,290.152 "/>
<path style="fill:#E22342;" d="M316.342,201.189v0.01c0.294,11.451-8.763,20.986-20.225,21.27l-51.901,1.217l-7.952,0.183
	c-7.222,0.183-13.916-3.398-17.811-9.271c-0.74-1.116-1.379-2.313-1.907-3.58l-3.783-9.189l-50.238-5.061l-15.498-1.562
	c5.579-23.866,19.14-53.93,31.828-79.348c5.69-11.411,18.369-15.306,28.816-11.644c0.03,0.01,0.051,0.02,0.071,0.03
	c5.325,1.866,10.052,5.7,12.983,11.512l8.195,16.269l20.58,49.984l45.572-1.045C306.534,180.67,316.059,189.737,316.342,201.189z"/>
<path style="fill:#F9DCA2;" d="M316.342,201.189v0.01c0.294,11.451-8.763,20.986-20.225,21.27l-14.687,0.345v-41.535l13.642-0.314
	C306.534,180.67,316.059,189.737,316.342,201.189z"/>
<path style="fill:#C9183A;" d="M207.743,104.243c-5.355,1.887-10.112,5.761-13.034,11.614c-12.963,25.976-26.848,56.81-32.183,80.91
	l-15.498-1.562c5.579-23.866,19.14-53.93,31.828-79.348c5.69-11.411,18.369-15.306,28.816-11.644
	C207.702,104.223,207.722,104.233,207.743,104.243z"/>
<path d="M511.346,214.841L464.518,109.23l3.814-32.417c0.35-2.968-1.07-5.945-3.809-7.516c-1.261-0.723-2.724-1.003-4.177-0.977
	c-14.523,0.267-28.803,13.953-34.962,20.684c-11.841-1.743-23.497-1.118-34.794,1.858c-4.341,1.144-6.76,5.777-5.21,9.991
	l0.001,0.001c1.342,3.648,5.231,5.742,8.989,4.749c10.502-2.775,21.402-3.084,32.49-0.915c2.755,0.54,5.596-0.492,7.369-2.673
	c3.957-4.866,10.943-11.674,17.647-15.526l-2.243,19.068c-11.902,6.68-47.914,30.026-60.831,73.942
	c-1.576,3.07-6.275,13.504-6.275,28.736c0,6.794,0.914,13.617,2.711,20.436c-19.091,2.353-42.247-0.24-68.767-7.761
	c4.998-5.433,7.654-12.455,7.479-19.847c0-0.021-0.001-0.044-0.001-0.065c-0.171-6.904-2.793-13.366-7.416-18.412
	c10.735-20.633,27.072-45.947,48.7-62.308c3.189-2.413,3.984-6.868,1.801-10.218l0,0c-2.401-3.686-7.433-4.595-10.936-1.934
	c-14.82,11.253-34.069,31.255-52.498,66.368c-2.791-0.818-5.718-1.211-8.701-1.136l-40.351,0.925l-18.588-45.147
	c-0.081-0.179-0.162-0.356-0.244-0.534l-4.911-9.749c2.982,0.47,6.037,0.719,9.15,0.719c29.855,0,54.544-22.463,58.097-51.373
	l10.545,1.794c0.432,0.074,0.861,0.109,1.285,0.109c3.873,0,7.266-2.967,7.579-7.052c0.302-3.958-2.656-7.434-6.57-8.099
	l-12.981-2.209c-4.034-28.379-28.481-50.276-57.957-50.276c-17.951,0-34.031,8.126-44.781,20.885
	c-2.427-1.112-5.413-2.268-8.769-3.114c-12.275-3.095-23-0.498-31.012,7.513c-14.898,14.899-24.84,16.987-31.858,17.042
	c-3.041,0.023-5.932,1.654-7.198,4.418c-1.604,3.498-0.362,7.545,2.772,9.575c1.473,0.953,26.822,17.136,50.158,17.133
	c4.662,0,9.244-0.65,13.54-2.194c1.824,8.207,5.359,15.776,10.235,22.295c-9.016,1.996-16.737,7.92-20.99,16.44
	c-1.387,2.777-2.784,5.61-4.18,8.484c-1.82,3.746-0.501,8.417,3.192,10.341c3.82,1.99,8.497,0.423,10.363-3.423
	c1.424-2.935,2.85-5.828,4.266-8.663c2.668-5.341,8.125-8.709,14.097-8.709h0.036c6.09,0,11.362,3.248,14.107,8.689l8.066,16.011
	l20.469,49.716c1.199,2.91,4.09,4.787,7.209,4.709l24.151-0.554v26.322l-29.788,0.698c0,0-0.001,0-0.002,0l-7.964,0.184
	c-4.569,0.123-8.764-2.08-11.281-5.875c-0.474-0.713-0.884-1.486-1.21-2.268l-26.188-63.616c-1.6-3.886-6.043-5.737-9.931-4.139
	c-3.885,1.6-5.737,6.045-4.138,9.931l17.574,42.69l-44.215-4.453c2.966-10.169,7.608-22.937,14.681-38.995
	c1.677-3.807,0.211-8.426-3.541-10.222c-3.891-1.863-8.522-0.13-10.25,3.788c-16.125,36.555-22.724,61.948-20.301,78.6
	c-1.569,0.512-3.099,1.097-4.589,1.756c-7.512-13.561-20.96-29.218-44.838-38.648c-17.838-7.046-35.418-4.897-49.497,6.054
	c-19.598,15.244-30.211,45.408-26.407,75.059c4.923,38.324-9.686,57.695-10.277,58.458c-1.697,2.125-2.131,4.993-1.138,7.525
	c0.993,2.532,3.262,4.34,5.951,4.745c0.354,0.054,3.395,0.489,7.891,0.488c8.896,0,23.485-1.704,34.212-11.438
	c9.369-8.502,13.694-20.948,12.856-36.994c-0.814-15.567,6.695-30.053,18.26-35.227c7.617-3.409,15.752-2.08,23.307,3.668
	c-0.078,0.194-0.164,0.375-0.241,0.57c-13.225,33.35-5.373,57.293,3.543,71.507c4.649,7.412,10.05,12.973,14.464,16.782
	c-17.459,11.031-34.504,0.855-35.282,0.377c-2.775-1.748-6.358-1.519-8.889,0.565l-17.243,14.2
	c-3.003,2.473-3.672,6.826-1.513,10.063c20.151,30.217,27.815,55.961,22.164,74.45c-4.892,16.007-18.09,21.585-18.597,21.794
	c-2.922,1.148-4.925,4.019-4.827,7.362c0.042,1.399,0.528,2.751,1.274,3.935l17.002,27.003c1.055,1.676,2.655,2.99,4.568,3.505
	c0.667,0.18,1.341,0.268,2.008,0.268c1.877,0,3.702-0.696,5.111-1.973c36.739-33.326,33.237-81.303,28.566-105.072
	c13.81,4.405,25.98,6.63,36.309,6.63c12.714,0,36.815-4.766,58.36-35.845h60.532c4.201,0,7.607-3.406,7.607-7.607v-8.412
	c0-0.193-0.02-0.381-0.023-0.574c5.148,0.186,10.14,0.618,14.992,1.299l37.954,37.953h-9.477l-24.321-18.709
	c-3.029-2.328-7.315-2.051-10.018,0.651l-26.221,26.221c-1.206,1.206-2.07,2.748-2.303,4.438c-0.472,3.414,1.336,6.574,4.276,7.966
	l38.345,18.164c0.876,0.415,1.812,0.713,2.777,0.796c0.484,0.042,0.967,0.04,1.45-0.01l99.4-10.143
	c2.776-0.284,5.176-2.065,6.249-4.641c1.074-2.577,0.65-5.535-1.104-7.707l-26.427-32.721c20.827,2.24,40.089,2.598,50.43,2.592l0,0
	v44.577l-23.121,7.432c-3.353,1.078-5.527,4.315-5.257,7.825l3.043,39.557c0.18,2.336,1.425,4.459,3.377,5.754
	c1.262,0.838,2.728,1.27,4.208,1.27c0.807,0,1.62-0.129,2.405-0.391c35.525-11.842,55.645-38.984,58.182-78.491
	c1.849-28.792-6.363-53.823-6.714-54.875c-0.726-2.178-2.396-3.911-4.545-4.717l-56.111-21.041
	c2.714-4.804,5.921-11.426,8.347-19.294c6.809-22.081,4.289-43.54-7.285-62.058c-1.775-2.842-3.354-5.684-4.76-8.525
	c6.665-2.141,12.836-4.961,18.487-8.479c0.328-0.204,0.635-0.417,0.955-0.623c2.872,1.17,5.858,2.144,8.952,2.881l16.263,3.873
	l3.577,3.577c10.502,10.502,27.587,10.499,38.089,0l17.777-17.777C511.994,221.08,512.621,217.717,511.346,214.841z M196.614,61.015
	c0-3.4,0.407-6.704,1.151-9.881l17.662,3.005l-16.772,20.013c-1.321-4.144-2.04-8.555-2.04-13.131
	C196.614,61.02,196.614,61.017,196.614,61.015z M239.952,104.358c-13.471,0-25.525-6.179-33.48-15.849l26.325-31.413l23.938,4.073
	l-1.38,6.724c-0.845,4.116,1.806,8.137,5.922,8.982c0.516,0.105,1.031,0.157,1.538,0.157c3.536,0,6.704-2.48,7.444-6.079l1.484-7.23
	l11.298,1.922C280.725,87.375,262.287,104.358,239.952,104.358z M239.952,17.68c20.095,0,37.036,13.75,41.92,32.334L204.05,36.771
	C211.848,25.26,225.031,17.68,239.952,17.68z M151.094,57.326c-2.271-0.768-4.478-1.617-6.572-2.493
	c7.119-3.54,14.242-8.939,21.629-16.326c6.277-6.278,14.95-4.518,20.738-2.203c-0.441,0.943-0.855,1.901-1.246,2.869
	c-0.165,0.337-0.302,0.692-0.418,1.057c-2.054,5.388-3.333,11.152-3.702,17.161C173.434,63.027,160.727,60.584,151.094,57.326z
	 M453.18,121.195l28.507,64.292c-2.318,1.584-5.141,3.676-8.212,6.293c-20.382-13.488-38.485-39.315-45.408-49.937
	C437.419,131.923,446.983,125.093,453.18,121.195z M449.835,221.748l-10.823-2.578c7.525-8.068,12.028-16.609,14.682-23.423
	c2.855,2.473,5.802,4.81,8.816,6.952C457.965,207.986,453.514,214.315,449.835,221.748z M403.651,182.937
	c3.361-11.032,8.485-20.612,14.299-28.789c5.197,7.683,13.47,19.028,23.606,29.852c-1.493,5.922-5.905,18.484-17.932,28.923
	C413.23,206.278,405.903,195.549,403.651,182.937z M289.04,188.711l6.228-0.143c3.531-0.089,6.843,1.194,9.389,3.615
	c2.535,2.412,3.983,5.662,4.079,9.154c0.001,0.019,0.001,0.038,0.002,0.056c0.089,3.507-1.194,6.84-3.614,9.386
	c-2.421,2.547-5.686,3.996-9.186,4.084l-6.899,0.162L289.04,188.711L289.04,188.711z M207.464,208.94l2.059,5.001
	c0.71,1.706,1.583,3.342,2.592,4.86c5.426,8.182,14.565,12.902,24.324,12.672l5.473-0.126l3.82,2.654
	c5.195,3.606,8.061,9.744,7.498,16.044l-4.223,32.501h-27.163l2.263-18.033c0.255-2.023-0.317-4.064-1.583-5.665
	c-1.265-1.6-3.121-2.625-5.149-2.845c-14.586-1.584-54.482-10.383-63.797-31.795c-1.392-3.196-2.434-9.308-0.454-20.742
	L207.464,208.94z M73.481,239.595c-17.446,7.805-28.393,27.863-27.241,49.91c0.587,11.231-2.05,19.604-7.837,24.889
	c-5.135,4.689-12.099,6.55-17.989,7.212c4.907-11.421,10.071-30.723,6.615-57.616c-3.094-24.116,5.401-49.247,20.657-61.113
	c9.94-7.731,21.57-9.046,34.567-3.913c20.357,8.041,31.532,21.437,37.619,32.798c-3.636,3.271-6.915,7.174-9.841,11.687
	C98.53,235.63,85.599,234.172,73.481,239.595z M82.754,489.746l-7.91-12.563c2.963-2.07,6.405-4.951,9.685-8.779l8.599,6.057
	C90.291,479.973,86.836,485.075,82.754,489.746z M151.418,393.904c-11.639,0-26.475-3.471-44.103-10.319
	c-2.787-1.227-6.161-0.698-8.445,1.587c-1.485,1.485-2.226,3.433-2.224,5.382c0,0.881,0.152,1.762,0.456,2.6
	c0.594,1.795,5.6,17.526,5.631,37.756c0.017,10.474-1.268,20.152-3.838,29.005l-6.303-4.44c0.676-1.573,1.295-3.229,1.843-4.974
	c6.93-22.072,0.145-49.606-20.172-81.915l8.111-6.68c13.077,5.836,36.38,8.987,56.166-10.8c1.672-1.673,2.458-4.037,2.148-6.382
	c-0.31-2.346-1.708-4.421-3.757-5.603c-1.664-0.96-40.527-24.095-20.028-75.789c5.984-15.087,14.245-23.923,25.748-27.403
	c14.441,22.745,49.732,31.316,65.432,34.073l-11.884,94.719c-0.061,0.484-0.067,0.968-0.036,1.446
	C187.456,378.176,172.105,393.904,151.418,393.904z M262.703,358.059h-50.335l7.565-60.296h27.095l-4.918,37.854
	c-0.282,2.171,0.384,4.356,1.829,6.001c1.444,1.644,3.528,2.586,5.716,2.586c7.196,0,13.05,5.854,13.05,13.05V358.059z
	 M293.061,393.356l15.772,12.132l-7.309,12.531l-22.478-10.647L293.061,393.356z M389.236,411.597l-70.553,7.199l4.462-7.65h26.059
	c3.076,0,5.851-1.853,7.028-4.696c1.178-2.843,0.527-6.114-1.648-8.29l-32.373-32.373c0.888,0.361,1.774,0.727,2.653,1.111
	c10.583,4.613,23.367,7.899,36.543,10.242L389.236,411.597z M422.94,470.767l-1.791-23.281l16.799-5.399l7.015,12.334
	C439.124,461.171,431.779,466.627,422.94,470.767z M397.525,256.442c22.164,35.461-4.512,70.972-5.647,72.452
	c-1.481,1.91-1.966,4.41-1.306,6.736c0.659,2.325,2.386,4.199,4.647,5.047l61.358,23.01c2.021,7.411,6.312,26,4.949,46.101
	c-0.775,11.429-3.209,21.498-7.27,30.197l-5.143-9.043V375.14c0-2.054-0.83-4.02-2.302-5.452c-1.473-1.432-3.466-2.21-5.514-2.152
	c-0.726,0.019-72.783,1.792-110.354-14.583c-17.37-7.571-36.836-11.464-57.956-11.593c-3.54-5.179-8.739-9.14-14.843-11.067
	l10.19-78.423c0.011-0.084,0.021-0.168,0.028-0.254c0.711-7.4-1.125-14.692-4.988-20.771l31.581-0.74
	c28.732,9.827,54.133,14.751,76.047,14.751c6.848,0,13.351-0.49,19.515-1.45C392.493,247.766,394.821,252.115,397.525,256.442z
	 M400.157,225.584c-1.595-5.787-2.408-11.538-2.419-17.226c3.362,5.083,7.491,9.605,12.224,13.439
	C406.877,223.268,403.612,224.536,400.157,225.584z M481.233,230.323c-4.567,4.568-12.002,4.569-16.571,0l-1.401-1.401
	c7.029-14.4,17.76-24.055,24.729-29.219l7.33,16.533L481.233,230.323z"/>
<path d="M440.612,147.804c1.203,3.011,4.363,4.907,7.578,4.673c3.173-0.23,5.922-2.485,6.766-5.551
	c0.828-3.004-0.302-6.366-2.856-8.183c-2.712-1.931-6.386-1.905-9.057,0.089C440.315,140.87,439.286,144.665,440.612,147.804z"/>
<g>
</g>
<g>
</g>
<g>
</g>
<g>
</g>
<g>
</g>
<g>
</g>
<g>
</g>
<g>
</g>
<g>
</g>
<g>
</g>
<g>
</g>
<g>
</g>
<g>
</g>
<g>
</g>
<g>
</g>
</svg>
