<svg id="Layer_1" enable-background="new 0 0 256 256" height="512" viewBox="0 0 256 256" width="512" xmlns="http://www.w3.org/2000/svg"><circle cx="128" cy="128" fill="#576fa5" r="124"/><path d="m128 4c-1.171 0-2.337.02-3.5.052 66.865 1.853 120.5 56.636 120.5 123.948s-53.635 122.094-120.5 123.948c1.163.032 2.329.052 3.5.052 68.483 0 124-55.517 124-124s-55.517-124-124-124z" fill="#395288"/><path d="m128 252c1.171 0 2.337-.02 3.5-.052-66.865-1.854-120.5-56.636-120.5-123.948s53.635-122.095 120.5-123.948c-1.163-.032-2.329-.052-3.5-.052-68.483 0-124 55.517-124 124s55.517 124 124 124z" fill="#758ec3"/><circle cx="128" cy="128" fill="#f4efed" r="109.097"/><path d="m205.025 50.741-13.792 13.792c16.282 16.222 26.36 38.667 26.36 63.467 0 24.74-10.028 47.138-26.241 63.351l13.792 13.792c19.743-19.743 31.954-47.017 31.954-77.143-.001-30.186-12.262-57.507-32.073-77.259z" fill="#ff4397"/><g fill="#690589"><path d="m205.144 207.143c-.53 0-1.039-.211-1.414-.586l-13.792-13.792c-.781-.781-.781-2.047 0-2.828 16.544-16.544 25.655-38.541 25.655-61.937 0-23.456-9.152-45.493-25.771-62.05-.377-.375-.588-.884-.589-1.415 0-.531.21-1.041.586-1.416l13.792-13.792c.781-.781 2.045-.781 2.826-.002 21.062 20.998 32.66 48.939 32.66 78.676 0 29.675-11.556 57.574-32.539 78.557-.375.374-.884.585-1.414.585zm-10.979-15.807 10.966 10.966c19.341-20.058 29.966-46.362 29.966-74.302 0-28-10.668-54.348-30.083-74.42l-10.965 10.965c16.488 17.143 25.544 39.597 25.544 63.455 0 23.797-9.014 46.209-25.428 63.336z"/><path d="m128 239.097c-61.259 0-111.097-49.838-111.097-111.097s49.838-111.097 111.097-111.097 111.097 49.838 111.097 111.097-49.838 111.097-111.097 111.097zm0-218.194c-59.054 0-107.097 48.043-107.097 107.097s48.043 107.097 107.097 107.097 107.097-48.043 107.097-107.097-48.043-107.097-107.097-107.097z"/><path d="m32.881 97.749c-.216 0-.436-.035-.652-.11-1.044-.36-1.599-1.499-1.238-2.542 1.433-4.154 3.121-8.264 5.021-12.215.479-.995 1.676-1.412 2.669-.936.996.479 1.415 1.674.937 2.669-1.833 3.812-3.463 7.777-4.845 11.785-.287.829-1.062 1.349-1.892 1.349z"/><path d="m128 254c-69.477 0-126-56.523-126-126s56.523-126 126-126 126 56.523 126 126-56.523 126-126 126zm0-248c-67.271 0-122 54.729-122 122s54.729 122 122 122 122-54.729 122-122-54.729-122-122-122z"/><path d="m128 32.702c-1.104 0-2-.896-2-2v-11.799c0-1.104.896-2 2-2s2 .896 2 2v11.799c0 1.104-.896 2-2 2z"/><path d="m237.097 130h-11.798c-1.104 0-2-.896-2-2s.896-2 2-2h11.798c1.104 0 2 .896 2 2s-.896 2-2 2z"/><path d="m30.701 130h-11.798c-1.104 0-2-.896-2-2s.896-2 2-2h11.798c1.104 0 2 .896 2 2s-.895 2-2 2z"/><path d="m59.199 61.2c-.512 0-1.023-.195-1.414-.586l-8.343-8.343c-.781-.781-.781-2.047 0-2.828s2.047-.781 2.828 0l8.343 8.343c.781.781.781 2.047 0 2.828-.39.39-.902.586-1.414.586z"/><path d="m50.856 207.143c-.512 0-1.023-.195-1.414-.586-.781-.781-.781-2.047 0-2.828l8.343-8.343c.781-.781 2.047-.781 2.828 0s.781 2.047 0 2.828l-8.343 8.343c-.39.391-.902.586-1.414.586z"/></g><path d="m114.27 141.495c-8.545-8.545-6.83-22.836 3.495-29.116l22.566-13.726 42.842-26.06-26.06 42.842-13.727 22.565c-6.28 10.324-20.571 12.04-29.116 3.495z" fill="#7bac51"/><circle cx="128" cy="128" fill="#ff4397" r="8.701"/><path d="m128 138.701c-5.9 0-10.701-4.8-10.701-10.701s4.801-10.701 10.701-10.701 10.701 4.8 10.701 10.701-4.801 10.701-10.701 10.701zm0-17.402c-3.695 0-6.701 3.006-6.701 6.701s3.006 6.701 6.701 6.701 6.701-3.006 6.701-6.701-3.006-6.701-6.701-6.701z" fill="#690589"/><path d="m127.414 148.959c-5.444 0-10.645-2.137-14.558-6.05-4.51-4.509-6.66-10.728-5.9-17.06s4.32-11.864 9.77-15.178l65.408-39.787c.789-.479 1.802-.356 2.453.294.652.652.774 1.666.295 2.454l-39.787 65.407c-3.314 5.448-8.847 9.009-15.178 9.77-.838.1-1.674.15-2.503.15zm49.782-70.39-58.393 35.519c-4.393 2.672-7.264 7.133-7.876 12.238-.613 5.105 1.121 10.119 4.757 13.755 3.636 3.635 8.652 5.369 13.755 4.757 5.105-.613 9.565-3.484 12.237-7.876z" fill="#690589"/><path d="m170.898 206.297h-85.796c-2.761 0-5-2.239-5-5v-31.703c0-2.761 2.239-5 5-5h85.796c2.761 0 5 2.239 5 5v31.703c0 2.761-2.238 5-5 5z" fill="#fcc24c"/><path d="m170.898 164.593h-7c2.761 0 5 2.239 5 5v31.703c0 2.761-2.239 5-5 5h7c2.761 0 5-2.239 5-5v-31.703c0-2.761-2.238-5-5-5z" fill="#dea42e"/><path d="m85.102 206.297h7c-2.761 0-5-2.239-5-5v-31.703c0-2.761 2.239-5 5-5h-7c-2.761 0-5 2.239-5 5v31.703c0 2.761 2.238 5 5 5z" fill="#fce06a"/><path d="m170.898 208.297h-85.796c-3.859 0-7-3.14-7-7v-31.704c0-3.86 3.141-7 7-7h85.797c3.859 0 7 3.14 7 7v31.704c-.001 3.86-3.141 7-7.001 7zm-85.796-41.704c-1.654 0-3 1.346-3 3v31.704c0 1.654 1.346 3 3 3h85.797c1.654 0 3-1.346 3-3v-31.704c0-1.654-1.346-3-3-3z" fill="#690589"/><path d="m91.552 195.986v-20.904c0-1.036.858-1.966 1.966-1.966 1.107 0 1.965.929 1.965 1.966v10.256l11.578-11.613c.786-.786 2.001-.786 2.787 0 .75.75.75 2.001 0 2.787l-7.862 7.826 7.933 10.399c.715.822.572 2.073-.286 2.752-.357.321-.786.464-1.251.464-.536 0-1.072-.25-1.465-.715l-7.719-10.113-3.716 3.788v5.074c0 1.072-.858 1.966-1.965 1.966-1.107-.001-1.965-.894-1.965-1.967z" fill="#690589"/><path d="m138.613 174.903v21.083c0 1.072-.93 1.966-2.001 1.966-1.108 0-1.966-.893-1.966-1.966v-15.044l-5.145 7.147c-.393.536-.965.822-1.608.822h-.036-.036c-.643 0-1.251-.286-1.643-.822l-5.11-7.147v15.044c0 1.072-.894 1.966-2.001 1.966-1.072 0-1.966-.893-1.966-1.966v-21.083c0-1.072.894-1.965 1.966-1.965h.107c.572 0 1.215.286 1.572.822l7.111 9.863 7.111-9.863c.394-.536.965-.822 1.608-.822h.036c1.072.036 2.001.893 2.001 1.965z" fill="#690589"/><path d="m147.26 195.986v-21.083c0-1.108.858-1.965 1.966-1.965 1.107 0 2.001.858 2.001 1.965v8.576h9.255v-8.576c0-1.108.858-1.965 1.966-1.965 1.107 0 2.001.858 2.001 1.965v21.083c0 1.108-.894 1.966-2.001 1.966-1.108 0-1.966-.858-1.966-1.966v-8.576h-9.255v8.576c0 1.108-.894 1.966-2.001 1.966-1.109 0-1.966-.858-1.966-1.966z" fill="#690589"/></svg>